<svg width="238" height="48" viewBox="0 0 238 48" fill="none" xmlns="http://www.w3.org/2000/svg">
<g clip-path="url(#clip0_299_2)">
<path d="M0 28.8577C60.0719 28.8577 120.144 28.8577 180.216 28.8577C193.791 28.8577 207.06 26.6492 220.569 23.2354C226.405 21.7605 232.125 17.8577 238 17.8577" stroke="#4470BC" stroke-opacity="0.6" stroke-width="27"/>
<path d="M15.2727 39.4261C13.0663 39.4261 11.1581 38.9574 9.5483 38.0199C7.94792 37.0729 6.71212 35.7566 5.84091 34.071C4.9697 32.3759 4.53409 30.411 4.53409 28.1761C4.53409 25.9223 4.9697 23.9527 5.84091 22.267C6.71212 20.572 7.94792 19.2557 9.5483 18.3182C11.1581 17.3712 13.0663 16.8977 15.2727 16.8977C17.4792 16.8977 19.3826 17.3712 20.983 18.3182C22.5928 19.2557 23.8333 20.572 24.7045 22.267C25.5758 23.9527 26.0114 25.9223 26.0114 28.1761C26.0114 30.411 25.5758 32.3759 24.7045 34.071C23.8333 35.7566 22.5928 37.0729 20.983 38.0199C19.3826 38.9574 17.4792 39.4261 15.2727 39.4261ZM15.3011 34.7386C16.3049 34.7386 17.143 34.4545 17.8153 33.8864C18.4877 33.3087 18.9943 32.5227 19.3352 31.5284C19.6856 30.5341 19.8608 29.4025 19.8608 28.1335C19.8608 26.8646 19.6856 25.733 19.3352 24.7386C18.9943 23.7443 18.4877 22.9583 17.8153 22.3807C17.143 21.803 16.3049 21.5142 15.3011 21.5142C14.2879 21.5142 13.4356 21.803 12.7443 22.3807C12.0625 22.9583 11.5464 23.7443 11.196 24.7386C10.8551 25.733 10.6847 26.8646 10.6847 28.1335C10.6847 29.4025 10.8551 30.5341 11.196 31.5284C11.5464 32.5227 12.0625 33.3087 12.7443 33.8864C13.4356 34.4545 14.2879 34.7386 15.3011 34.7386ZM43.9375 29.7102V17.1818H49.9886V39H44.179V35.0369H43.9517C43.4593 36.3153 42.6402 37.3428 41.4943 38.1193C40.358 38.8958 38.9706 39.2841 37.3324 39.2841C35.8741 39.2841 34.5909 38.9527 33.483 38.2898C32.375 37.6269 31.5085 36.6847 30.8835 35.4631C30.268 34.2415 29.9555 32.7784 29.946 31.0739V17.1818H35.9972V29.9943C36.0066 31.2822 36.3523 32.3002 37.0341 33.0483C37.7159 33.7964 38.6297 34.1705 39.7756 34.1705C40.5047 34.1705 41.1866 34.0047 41.821 33.6733C42.4555 33.3324 42.9669 32.8305 43.3551 32.1676C43.7528 31.5047 43.947 30.6856 43.9375 29.7102ZM54.8288 39V17.1818H60.6953V20.9886H60.9226C61.3203 19.6345 61.9879 18.6117 62.9254 17.9205C63.8629 17.2197 64.9425 16.8693 66.1641 16.8693C66.4671 16.8693 66.7938 16.8883 67.1442 16.9261C67.4946 16.964 67.8023 17.0161 68.0675 17.0824V22.4517C67.7834 22.3665 67.3904 22.2907 66.8885 22.2244C66.3866 22.1581 65.9273 22.125 65.5107 22.125C64.6205 22.125 63.825 22.3191 63.1243 22.7074C62.433 23.0862 61.8838 23.6165 61.4766 24.2983C61.0788 24.9801 60.88 25.7661 60.88 26.6562V39H54.8288ZM80.4538 39V17.1818H86.505V39H80.4538ZM83.4936 14.3693C82.594 14.3693 81.8222 14.071 81.1783 13.4744C80.5438 12.8684 80.2266 12.1439 80.2266 11.3011C80.2266 10.4678 80.5438 9.75284 81.1783 9.15625C81.8222 8.55019 82.594 8.24716 83.4936 8.24716C84.3932 8.24716 85.1603 8.55019 85.7947 9.15625C86.4387 9.75284 86.7607 10.4678 86.7607 11.3011C86.7607 12.1439 86.4387 12.8684 85.7947 13.4744C85.1603 14.071 84.3932 14.3693 83.4936 14.3693ZM91.3523 39V17.1818H97.1193V21.0312H97.375C97.8295 19.7528 98.5871 18.7443 99.6477 18.0057C100.708 17.267 101.977 16.8977 103.455 16.8977C104.951 16.8977 106.224 17.2718 107.276 18.0199C108.327 18.7585 109.027 19.7623 109.378 21.0312H109.605C110.05 19.7812 110.855 18.7822 112.02 18.0341C113.194 17.2765 114.581 16.8977 116.182 16.8977C118.218 16.8977 119.87 17.5464 121.139 18.8438C122.418 20.1316 123.057 21.9593 123.057 24.3267V39H117.02V25.5199C117.02 24.3078 116.698 23.3987 116.054 22.7926C115.41 22.1866 114.605 21.8835 113.639 21.8835C112.541 21.8835 111.684 22.2339 111.068 22.9347C110.453 23.6259 110.145 24.5398 110.145 25.6761V39H104.278V25.392C104.278 24.322 103.971 23.4697 103.355 22.8352C102.749 22.2008 101.949 21.8835 100.955 21.8835C100.282 21.8835 99.6761 22.054 99.1364 22.3949C98.6061 22.7263 98.1847 23.1951 97.8722 23.8011C97.5597 24.3977 97.4034 25.0985 97.4034 25.9034V39H91.3523ZM127.837 47.1818V17.1818H133.803V20.8466H134.072C134.338 20.2595 134.721 19.6629 135.223 19.0568C135.734 18.4413 136.397 17.9299 137.212 17.5227C138.036 17.1061 139.058 16.8977 140.28 16.8977C141.871 16.8977 143.339 17.3144 144.683 18.1477C146.028 18.9716 147.103 20.2169 147.908 21.8835C148.713 23.5407 149.115 25.6193 149.115 28.1193C149.115 30.553 148.722 32.608 147.936 34.2841C147.16 35.9508 146.099 37.215 144.754 38.0767C143.419 38.929 141.923 39.3551 140.266 39.3551C139.091 39.3551 138.092 39.161 137.268 38.7727C136.454 38.3845 135.786 37.8968 135.266 37.3097C134.745 36.7131 134.347 36.1117 134.072 35.5057H133.888V47.1818H127.837ZM133.76 28.0909C133.76 29.3883 133.94 30.5199 134.3 31.4858C134.66 32.4517 135.18 33.2045 135.862 33.7443C136.544 34.2746 137.373 34.5398 138.348 34.5398C139.333 34.5398 140.166 34.2699 140.848 33.7301C141.53 33.1809 142.046 32.4233 142.396 31.4574C142.756 30.482 142.936 29.3598 142.936 28.0909C142.936 26.8314 142.761 25.7235 142.411 24.767C142.06 23.8106 141.544 23.0625 140.862 22.5227C140.18 21.983 139.342 21.7131 138.348 21.7131C137.363 21.7131 136.53 21.9735 135.848 22.4943C135.176 23.0152 134.66 23.7538 134.3 24.7102C133.94 25.6667 133.76 26.7936 133.76 28.0909ZM159.371 39.4119C157.979 39.4119 156.738 39.1705 155.649 38.6875C154.56 38.1951 153.698 37.4706 153.064 36.5142C152.439 35.5483 152.126 34.3456 152.126 32.9062C152.126 31.6941 152.349 30.6761 152.794 29.8523C153.239 29.0284 153.845 28.3655 154.612 27.8636C155.379 27.3617 156.25 26.983 157.226 26.7273C158.211 26.4716 159.243 26.2917 160.322 26.1875C161.591 26.0549 162.614 25.9318 163.391 25.8182C164.167 25.6951 164.731 25.5152 165.081 25.2784C165.431 25.0417 165.607 24.6913 165.607 24.2273V24.142C165.607 23.2424 165.322 22.5464 164.754 22.054C164.196 21.5616 163.4 21.3153 162.368 21.3153C161.279 21.3153 160.412 21.5568 159.768 22.0398C159.125 22.5133 158.698 23.1098 158.49 23.8295L152.893 23.375C153.178 22.0492 153.736 20.9034 154.57 19.9375C155.403 18.9621 156.478 18.214 157.794 17.6932C159.12 17.1629 160.654 16.8977 162.396 16.8977C163.608 16.8977 164.768 17.0398 165.876 17.3239C166.994 17.608 167.983 18.0483 168.845 18.6449C169.716 19.2415 170.403 20.0085 170.905 20.946C171.407 21.8741 171.658 22.9867 171.658 24.2841V39H165.919V35.9744H165.749C165.398 36.6562 164.929 37.2576 164.342 37.7784C163.755 38.2898 163.05 38.6922 162.226 38.9858C161.402 39.2699 160.45 39.4119 159.371 39.4119ZM161.104 35.2358C161.994 35.2358 162.78 35.0606 163.462 34.7102C164.143 34.3504 164.679 33.8674 165.067 33.2614C165.455 32.6553 165.649 31.9687 165.649 31.2017V28.8864C165.46 29.0095 165.199 29.1231 164.868 29.2273C164.546 29.322 164.181 29.4119 163.774 29.4972C163.367 29.5729 162.96 29.6439 162.553 29.7102C162.145 29.767 161.776 29.8191 161.445 29.8665C160.734 29.9706 160.114 30.1364 159.584 30.3636C159.054 30.5909 158.642 30.8987 158.348 31.2869C158.054 31.6657 157.908 32.1392 157.908 32.7074C157.908 33.5312 158.206 34.161 158.803 34.5966C159.409 35.0227 160.176 35.2358 161.104 35.2358ZM186.21 39.4261C183.975 39.4261 182.053 38.9527 180.443 38.0057C178.843 37.0492 177.612 35.7235 176.75 34.0284C175.898 32.3333 175.472 30.3826 175.472 28.1761C175.472 25.9413 175.902 23.9811 176.764 22.2955C177.635 20.6004 178.871 19.2794 180.472 18.3324C182.072 17.3759 183.975 16.8977 186.182 16.8977C188.085 16.8977 189.752 17.2434 191.182 17.9347C192.612 18.6259 193.743 19.5966 194.577 20.8466C195.41 22.0966 195.869 23.5644 195.955 25.25H190.244C190.083 24.161 189.657 23.285 188.966 22.6222C188.284 21.9498 187.389 21.6136 186.281 21.6136C185.344 21.6136 184.525 21.8693 183.824 22.3807C183.133 22.8826 182.593 23.6165 182.205 24.5824C181.816 25.5483 181.622 26.7178 181.622 28.0909C181.622 29.483 181.812 30.6667 182.19 31.642C182.579 32.6174 183.123 33.3608 183.824 33.8722C184.525 34.3835 185.344 34.6392 186.281 34.6392C186.973 34.6392 187.593 34.4972 188.142 34.2131C188.701 33.929 189.16 33.517 189.52 32.9773C189.889 32.428 190.131 31.7699 190.244 31.0028H195.955C195.86 32.6695 195.405 34.1373 194.591 35.4062C193.786 36.6657 192.673 37.6506 191.253 38.3608C189.832 39.071 188.152 39.4261 186.21 39.4261ZM211.434 17.1818V21.7273H198.295V17.1818H211.434ZM201.278 11.9545H207.329V32.2955C207.329 32.8542 207.414 33.2898 207.585 33.6023C207.755 33.9053 207.992 34.1184 208.295 34.2415C208.607 34.3646 208.967 34.4261 209.374 34.4261C209.658 34.4261 209.942 34.4025 210.227 34.3551C210.511 34.2983 210.728 34.2557 210.88 34.2273L211.832 38.7301C211.529 38.8248 211.103 38.9337 210.553 39.0568C210.004 39.1894 209.336 39.2699 208.55 39.2983C207.092 39.3551 205.814 39.161 204.715 38.7159C203.626 38.2708 202.779 37.5795 202.173 36.642C201.567 35.7045 201.268 34.5208 201.278 33.0909V11.9545ZM218.913 39.3693C217.975 39.3693 217.17 39.0379 216.498 38.375C215.835 37.7027 215.504 36.8977 215.504 35.9602C215.504 35.0322 215.835 34.2367 216.498 33.5739C217.17 32.911 217.975 32.5795 218.913 32.5795C219.822 32.5795 220.617 32.911 221.299 33.5739C221.981 34.2367 222.322 35.0322 222.322 35.9602C222.322 36.5852 222.161 37.1581 221.839 37.679C221.526 38.1903 221.114 38.6023 220.603 38.9148C220.092 39.2178 219.528 39.3693 218.913 39.3693ZM218.913 24.0852C217.975 24.0852 217.17 23.7538 216.498 23.0909C215.835 22.428 215.504 21.6231 215.504 20.6761C215.504 19.7481 215.835 18.9574 216.498 18.304C217.17 17.6411 217.975 17.3097 218.913 17.3097C219.822 17.3097 220.617 17.6411 221.299 18.304C221.981 18.9574 222.322 19.7481 222.322 20.6761C222.322 21.3106 222.161 21.8883 221.839 22.4091C221.526 22.9205 221.114 23.3277 220.603 23.6307C220.092 23.9337 219.528 24.0852 218.913 24.0852Z" fill="black"/>
</g>
<defs>
<clipPath id="clip0_299_2">
<rect width="238" height="48" fill="white"/>
</clipPath>
</defs>
</svg>
